<?xml version="1.0" encoding="UTF-8"?>
<svg width="89px" height="100px" viewBox="0 0 89 100" version="1.1" xmlns="http://www.w3.org/2000/svg" xmlns:xlink="http://www.w3.org/1999/xlink">
    <title>CSS</title>
    <g id="Вебсайт" stroke="none" stroke-width="1" fill="none" fill-rule="evenodd">
        <g id="Цветные-инструменты" transform="translate(-350.000000, -48.000000)" fill-rule="nonzero">
            <g id="CSS" transform="translate(350.139776, 48.000000)">
                <polygon id="polygon2989" fill="#264DE4" points="44.0967232 100 8.16154956 90.0241528 0.153556678 0.205140326 88.1475978 0.205140326 80.1311144 90.0100829"></polygon>
                <polygon id="polygon2991" fill="#2965F1" points="73.2681255 84.2916128 80.1187425 7.54917645 44.1505772 7.54917645 44.1505772 92.3641334"></polygon>
                <polygon id="polygon2993" fill="#EBEBEB" points="18.5117063 40.8617573 19.4990297 51.8775689 44.1505772 51.8775689 44.1505772 40.8617573"></polygon>
                <polygon id="polygon2995" fill="#EBEBEB" points="16.5278414 18.5652306 17.5292347 29.5812848 44.1505772 29.5812848 44.1505772 18.5652306 44.1124913 18.5652306"></polygon>
                <polygon id="polygon2997" fill="#EBEBEB" points="44.1505772 69.4713314 44.1023027 69.4841884 31.8337791 66.1714396 31.0494999 57.3857173 25.087959 57.3857173 19.9912358 57.3857173 21.5345653 74.6823124 44.0998768 80.9466001 44.1505772 80.9325301"></polygon>
                <polygon id="polygon3005" fill="#FFFFFF" points="69.7188557 40.8617573 71.7075724 18.5652306 44.1124913 18.5652306 44.1124913 29.5812848 59.635058 29.5812848 58.6326943 40.8617573 44.1124913 40.8617573 44.1124913 51.8775689 57.6773923 51.8775689 56.3987236 66.1644046 44.1124913 69.4805496 44.1124913 80.9412632 66.6957541 74.6823124 66.8614401 72.8211958 69.4500709 43.819846"></polygon>
            </g>
        </g>
    </g>
</svg>