<?xml version="1.0" encoding="UTF-8"?>
<svg width="87px" height="100px" viewBox="0 0 87 100" version="1.1" xmlns="http://www.w3.org/2000/svg" xmlns:xlink="http://www.w3.org/1999/xlink">
    <title>HTML</title>
    <g id="Вебсайт" stroke="none" stroke-width="1" fill="none" fill-rule="evenodd">
        <g id="Цветные-инструменты" transform="translate(-134.000000, -48.000000)" fill-rule="nonzero">
            <g id="HTML" transform="translate(134.365222, 48.000000)">
                <polygon id="polygon3028" fill="#E44D26" points="86.5489234 0.795541159 78.6778296 88.9717511 43.2969703 98.7804878 8.01352896 88.9855659 0.150771723 0.795541159"></polygon>
                <polygon id="polygon3030" fill="#F16529" points="43.3498476 91.2831079 71.9393102 83.3569931 78.6656822 8.00638338 43.3498476 8.00638338"></polygon>
                <polygon id="polygon3032" fill="#EBEBEB" points="28.0487805 29.6389101 43.3498476 29.6389101 43.3498476 18.8226467 43.3124524 18.8226467 16.2280869 18.8226467 16.486995 21.7244665 19.1453887 51.5308213 43.3498476 51.5308213 43.3498476 40.7147961 29.0372523 40.7147961"></polygon>
                <polygon id="polygon3034" fill="#EBEBEB" points="30.4863758 56.939072 24.6329554 56.939072 19.6286681 56.939072 21.1440072 73.9219703 43.3000667 80.0726467 43.3498476 80.0588319 43.3498476 68.8054973 43.3024486 68.8181212 31.256431 65.5654535"></polygon>
                <polygon id="polygon3044" fill="#FFFFFF" points="43.3124524 51.5308213 56.6313357 51.5308213 55.3758575 65.5585461 43.3124524 68.8145484 43.3124524 80.0674066 65.4861376 73.9219703 65.6488186 72.0946075 68.1905011 43.6192359 68.4544112 40.7147961 65.5397294 40.7147961 43.3124524 40.7147961"></polygon>
                <polygon id="polygon3046" fill="#FFFFFF" points="43.3124524 29.6124714 43.3124524 29.6389101 69.4038205 29.6389101 69.4038205 29.6389101 69.4385957 29.6389101 69.6555831 27.2077458 70.1483899 21.7244665 70.4070598 18.8226467 43.3124524 18.8226467 43.3124524 25.540444"></polygon>
            </g>
        </g>
    </g>
</svg>