<?xml version="1.0" encoding="UTF-8"?>
<svg width="100px" height="75px" viewBox="0 0 100 75" version="1.1" xmlns="http://www.w3.org/2000/svg" xmlns:xlink="http://www.w3.org/1999/xlink">
    <title>Nuxt.js</title>
    <g id="Вебсайт" stroke="none" stroke-width="1" fill="none" fill-rule="evenodd">
        <g id="Цветные-инструменты" transform="translate(-996.000000, -60.000000)" fill-rule="nonzero">
            <g id="Nuxt.js" transform="translate(996.000000, 60.000000)">
                <path d="M56.9802475,20.5185175 L53.5580225,26.4444425 L41.8543225,6.17284 L5.925925,68.3950625 L30.25185,68.3950625 C30.25185,71.6678625 32.90498,74.3209875 36.1777775,74.3209875 L5.9259275,74.3209875 C3.809,74.3209875 1.853065,73.190945 0.7947775,71.3575325 C-0.26351,69.5241175 -0.2634025,67.26541 0.7950625,65.4320975 L36.7234575,3.2098775 C37.781995,1.376295 39.7383575,0.2467475 41.8555575,0.2467475 C43.9727525,0.2467475 45.929115,1.376295 46.987655,3.2098775 L56.9802475,20.5185175 Z" id="Path" fill="#00C58E"></path>
                <path d="M82.91605,65.4321 L60.40247,26.444445 L56.980245,20.51852 L53.558025,26.444445 L31.0469125,65.4320975 C29.98845,67.26541 29.9883425,69.5241175 31.04663,71.3575325 C32.104915,73.190945 34.0608525,74.3209875 36.17778,74.3209875 L77.77778,74.3209875 C79.895145,74.3209875 81.85189,73.192175 82.91078,71.3586 C83.9696675,69.525025 83.969795,67.2657925 82.91111,65.4321 L82.91605,65.4321 Z M36.177775,68.3950625 L56.98025,32.37037 L77.77778,68.3950625 L36.177775,68.3950625 L36.177775,68.3950625 Z" id="Shape" fill="#2F495E"></path>
                <path d="M99.012345,71.358025 C97.953985,73.19116 95.998205,74.3209875 93.8814825,74.3209875 L77.777775,74.3209875 C81.050575,74.3209875 83.7037,71.6678625 83.7037,68.3950625 L93.8691325,68.3950625 L65.0246925,18.4370375 L60.4024675,26.444445 L56.9802475,20.51852 L59.893825,15.474075 C60.952365,13.6404925 62.908725,12.510945 65.025925,12.510945 C67.1431225,12.510945 69.0994825,13.6404925 70.1580225,15.474075 L99.0123425,65.4321 C100.070908,67.2655875 100.070908,69.5245375 99.0123425,71.358025 L99.012345,71.358025 Z" id="Path" fill="#108775"></path>
            </g>
        </g>
    </g>
</svg>