<?xml version="1.0" encoding="UTF-8"?>
<svg width="100px" height="75px" viewBox="0 0 100 75" version="1.1" xmlns="http://www.w3.org/2000/svg" xmlns:xlink="http://www.w3.org/1999/xlink">
    <title>SASS</title>
    <defs>
        <polygon id="path-1" points="0.0109489051 0.0739051095 99.9582054 0.0739051095 99.9582054 74.9999444 0.0109489051 74.9999444"></polygon>
    </defs>
    <g id="Вебсайт" stroke="none" stroke-width="1" fill="none" fill-rule="evenodd">
        <g id="Цветные-инструменты" transform="translate(-452.000000, -60.000000)">
            <g id="SASS" transform="translate(452.000000, 60.000000)">
                <mask id="mask-2" fill="white">
                    <use xlink:href="#path-1"></use>
                </mask>
                <g id="Clip-2"></g>
                <path d="M70.6775547,56.6936131 C70.3604015,56.4678832 70.4131387,55.7383212 71.4562044,53.4660584 C71.8656934,52.5739051 72.8,51.0718978 74.4242701,49.6364964 C74.6124088,50.2268248 74.7271898,50.7928832 74.7239051,51.3198905 C74.7029197,54.8355839 72.1945255,56.1485401 70.6775547,56.6936131 Z M57.3257299,59.7372263 C56.9005474,59.9596715 56.5107664,60.0994526 56.329562,59.9916058 C56.1967153,59.9122263 56.504927,59.6193431 56.504927,59.6193431 C56.504927,59.6193431 58.6729927,57.2872263 59.5268248,56.2251825 C60.0235401,55.6076642 60.5994526,54.874635 61.2270073,54.0547445 C61.2321168,54.1366788 61.234854,54.2178832 61.234854,54.2981752 C61.2284672,57.0923358 58.5293796,58.9788321 57.3257299,59.7372263 Z M39.9939781,51.4675182 C38.9910584,53.9125912 36.8919708,60.1678832 35.6144161,59.8326642 C34.5177007,59.5448905 33.8498175,54.789781 35.395438,50.1100365 C36.1733577,47.7543796 37.835219,44.9395985 38.8114964,43.8470803 C40.3832117,42.0890511 42.1136861,41.5140511 42.5341241,42.2268248 C43.070073,43.1350365 40.6228102,49.934854 39.9939781,51.4675182 Z M19.0158759,65.7288321 C16.1363139,68.8702555 12.1133212,70.0574818 10.3881387,69.0574818 C8.52536496,67.9773723 9.26313869,63.3525547 12.7968978,60.0189781 C14.9507299,57.9874088 17.7312044,56.1162409 19.5757299,54.9636861 C19.995438,54.7111314 20.6122263,54.340146 21.3616788,53.8910584 C21.4859489,53.8202555 21.5560219,53.7810219 21.5560219,53.7810219 L21.5532847,53.7762774 C21.6979927,53.689781 21.8461679,53.6009124 21.9992701,53.5094891 C23.2850365,58.2543796 22.0383212,62.4317518 19.0158759,65.7288321 Z M86.025,43.1379562 C82.5313869,43.1563869 79.5054745,43.995073 76.9689781,45.2452555 C76.0412409,43.3937956 75.1023723,41.7649635 74.944708,40.5538321 C74.7605839,39.1399635 74.5472628,38.2965328 74.7695255,36.6122263 C74.9919708,34.9279197 75.9664234,32.5428832 75.9521898,32.3642336 C75.9379562,32.1855839 75.7335766,31.3275547 73.7186131,31.3129562 C71.7034672,31.2985401 69.9797445,31.7005474 69.7770073,32.2326642 C69.5740876,32.764781 69.1861314,33.9622263 68.944708,35.2107664 C68.5917883,37.0379562 64.9215328,43.5543796 62.8375912,46.9635036 C62.1560219,45.6330292 61.5764599,44.459854 61.4556569,43.5321168 C61.2717153,42.1182482 61.0582117,41.2748175 61.2804745,39.5903285 C61.5029197,37.9062044 62.4773723,35.5208029 62.4631387,35.3421533 C62.4489051,35.1635036 62.244708,34.3056569 60.229562,34.2910584 C58.2144161,34.2766423 56.4906934,34.6786496 56.2879562,35.2107664 C56.0850365,35.7428832 55.8684307,36.9861314 55.4556569,38.1888686 C55.0428832,39.3917883 50.1640511,50.2620438 48.8863139,53.079562 C48.235219,54.515146 47.6686131,55.6684307 47.2686131,56.4562044 C47.2675182,56.4541971 47.2660584,56.4518248 47.2660584,56.4518248 C47.2660584,56.4518248 47.2414234,56.5041971 47.1989051,56.5927007 C46.8565693,57.2631387 46.6527372,57.6341241 46.6527372,57.6341241 C46.6527372,57.6341241 46.654927,57.6392336 46.6587591,57.6479927 C46.3872263,58.1403285 46.0961679,58.5976277 45.9520073,58.5976277 C45.8512774,58.5976277 45.649635,57.2870438 45.9959854,55.4881387 C46.7218978,51.7173358 48.4658759,45.8366788 48.4485401,45.6341241 C48.4394161,45.530292 48.7726277,44.5056569 47.3096715,43.9698905 C45.8875912,43.4494526 45.3812044,44.3175182 45.2514599,44.3202555 C45.1257299,44.3229927 45.0322993,44.6270073 45.0322993,44.6270073 C45.0322993,44.6270073 46.6166058,38.0138686 42.0104015,38.0138686 C39.1306569,38.0138686 35.1403285,41.1640511 33.174635,44.0195255 C31.9341241,44.6961679 29.279562,46.1452555 26.4631387,47.6927007 C25.3813869,48.2868613 24.2775547,48.8943431 23.2308394,49.4709854 C23.1596715,49.3921533 23.0886861,49.3131387 23.0155109,49.2350365 C17.430292,43.2760949 7.10529197,39.0613139 7.54324818,31.0501825 C7.70255474,28.1377737 8.7149635,20.4691606 27.3828467,11.1669708 C42.6748175,3.54689781 54.9167883,5.64379562 57.0324818,10.2910584 C60.0547445,16.930292 50.489781,29.270073 34.6089416,31.0501825 C28.5582117,31.7284672 25.3722628,29.3835766 24.5797445,28.5100365 C23.7456204,27.5906934 23.6211679,27.5492701 23.3096715,27.7217153 C22.8023723,28.0029197 23.1239051,28.8145985 23.3096715,29.2983577 C23.7839416,30.5324818 25.729562,32.7208029 29.0468978,33.8093066 C31.965146,34.7669708 39.0691606,35.2930657 47.6600365,31.9698905 C57.2822993,28.2479927 64.7958029,17.8943431 62.5888686,9.2399635 C60.3445255,0.437956204 45.7501825,-2.45565693 31.9375912,2.45164234 C23.7169708,5.37208029 14.8178832,9.95583942 8.41934307,15.9406934 C0.811313869,23.0569343 -0.401824818,29.2505474 0.0979927007,31.8385036 C1.87427007,41.0339416 14.5485401,47.0220803 19.6239051,51.4600365 C19.3733577,51.5981752 19.1385036,51.7279197 18.9248175,51.8458029 C16.380292,53.104562 6.7189781,58.1605839 4.30237226,63.5027372 C1.56131387,69.5624088 4.73886861,73.9100365 6.84251825,74.495438 C13.3605839,76.3091241 20.0490876,73.0468978 23.6436131,67.6854015 C27.2374088,62.3251825 26.7985401,55.3456204 25.1490876,52.1596715 C25.1286496,52.120073 25.1060219,52.0813869 25.0850365,52.0421533 C25.7419708,51.6532847 26.4120438,51.2578467 27.0760949,50.8678832 C28.3711679,50.1074818 29.6423358,49.3979927 30.7456204,48.7976277 C30.1284672,50.4890511 29.6762774,52.5164234 29.4410584,55.4443431 C29.164781,58.8841241 30.5744526,63.330292 32.4191606,65.079562 C33.2313869,65.849635 34.2085766,65.8677007 34.8279197,65.8677007 C36.9744526,65.8677007 37.9540146,64.0819343 39.0322993,61.9698905 C40.3551095,59.379562 41.5286496,56.3640511 41.5286496,56.3640511 C41.5286496,56.3640511 40.0556569,64.5100365 44.0689781,64.5100365 C45.5312044,64.5100365 47.0021898,62.6138686 47.6572993,61.6470803 C47.6591241,61.6576642 47.6600365,61.6633212 47.6600365,61.6633212 C47.6600365,61.6633212 47.6981752,61.600365 47.7726277,61.4740876 C47.9244526,61.2419708 48.0104015,61.0941606 48.0104015,61.0941606 C48.0104015,61.0941606 48.0133212,61.0788321 48.0180657,61.0521898 C48.6058394,60.0315693 49.9094891,57.7047445 51.8645985,53.8677007 C54.3905109,48.910219 56.8133212,42.6998175 56.8133212,42.6998175 C56.8133212,42.6998175 57.0386861,44.2182482 57.7768248,46.7290146 C58.2111314,48.2063869 59.1337591,49.8394161 59.8616788,51.4054745 C59.2757299,52.2184307 58.9155109,52.6854015 58.9155109,52.6854015 C58.9155109,52.6854015 58.9189781,52.6939781 58.925365,52.7096715 C58.4571168,53.3312044 57.9321168,54.0020073 57.3828467,54.6560219 C55.3892336,57.0304745 53.0145985,59.7419708 52.6965328,60.524635 C52.3220803,61.4467153 52.4105839,62.125 53.1344891,62.6706204 C53.6633212,63.0691606 54.6047445,63.1310219 55.5870438,63.064781 C57.3786496,62.9443431 58.6392336,62.5 59.2611314,62.2293796 C60.2306569,61.8864964 61.3596715,61.3472628 62.4193431,60.5684307 C64.375,59.1306569 65.554562,57.0739051 65.4412409,54.3494526 C65.3784672,52.8479927 64.899635,51.359854 64.2939781,49.954927 C64.4715328,49.6998175 64.6494526,49.4423358 64.8279197,49.1815693 C67.9109489,44.6744526 70.3023723,39.7217153 70.3023723,39.7217153 C70.3023723,39.7217153 70.5277372,41.2399635 71.2660584,43.7509124 C71.6395985,45.0218978 72.3766423,46.4082117 73.0394161,47.7680657 C70.1405109,50.1235401 68.3427007,52.8604015 67.7184307,54.6560219 C66.5642336,57.9766423 67.4682482,59.4813869 69.1638686,59.8239051 C69.9319343,59.9791971 71.0166058,59.6271898 71.8326642,59.2817518 C72.8479927,58.945073 74.0680657,58.3843066 75.2076642,57.5467153 C77.1633212,56.1089416 79.0436131,54.0956204 78.930292,51.3713504 C78.8784672,50.1310219 78.5421533,48.9 78.0857664,47.7173358 C80.5430657,46.6937956 83.724635,46.124635 87.7770073,46.5978102 C96.470438,47.6129562 98.1759124,53.0410584 97.85,55.3129562 C97.5239051,57.5850365 95.700365,58.8337591 95.0906934,59.2109489 C94.4812044,59.5879562 94.295073,59.7187956 94.3463504,59.9992701 C94.420438,60.4069343 94.7023723,60.3912409 95.2220803,60.3036496 C95.9377737,60.1828467 99.7872263,58.4556569 99.9520073,54.2620438 C100.161314,48.9379562 95.0604015,43.089781 86.025,43.1379562 L86.025,43.1379562 Z" id="Fill-1" fill="#BE5F8B" mask="url(#mask-2)"></path>
            </g>
        </g>
    </g>
</svg>