<?xml version="1.0" encoding="UTF-8"?>
<svg width="26px" height="25px" viewBox="0 0 26 25" version="1.1" xmlns="http://www.w3.org/2000/svg" xmlns:xlink="http://www.w3.org/1999/xlink">
    <title>GitHub</title>
    <g id="Symbols" stroke="none" stroke-width="1" fill="none" fill-rule="evenodd">
        <g id="Светлая-тема/Подвал/1440px" transform="translate(-737.000000, -117.000000)" fill="#FFFFFF">
            <g id="Соц.-Сети" transform="translate(605.000000, 104.000000)">
                <g id="GitHub" transform="translate(120.000000, 0.000000)">
                    <path d="M24.818849,13 C17.9171638,13 12.32,18.5963965 12.32,25.5003837 C12.32,31.023113 15.9012947,35.7078793 20.8684515,37.3607846 C21.4938543,37.4758894 21.7217619,37.0899045 21.7217619,36.7584027 C21.7217619,36.4621996 21.7110188,35.67565 21.7048798,34.6328003 C18.2279468,35.3878879 17.4943454,32.9568741 17.4943454,32.9568741 C16.9257276,31.5126922 16.1061813,31.1282421 16.1061813,31.1282421 C14.9712477,30.353203 16.1921262,30.3685503 16.1921262,30.3685503 C17.4467688,30.4567973 18.1067031,31.6569569 18.1067031,31.6569569 C19.2216851,33.5669296 21.0326677,33.0151938 21.7447828,32.6952024 C21.8583529,31.8879339 22.1814138,31.3369655 22.5382387,31.0246478 C19.7626778,30.7092606 16.8443869,29.6364836 16.8443869,24.8465883 C16.8443869,23.4822125 17.331664,22.3656957 18.1312588,21.4924338 C18.0023414,21.1762792 17.5733841,19.9047546 18.2540373,18.1843212 C18.2540373,18.1843212 19.3030259,17.8482151 21.6910673,19.4658215 C22.687875,19.1880352 23.7575825,19.0499095 24.8203837,19.0445379 C25.8824175,19.0499095 26.9513576,19.1880352 27.9497001,19.4658215 C30.3362068,17.8482151 31.3836606,18.1843212 31.3836606,18.1843212 C32.0658486,19.9047546 31.6368912,21.1762792 31.5087412,21.4924338 C32.3098708,22.3656957 32.793311,23.4822125 32.793311,24.8465883 C32.793311,29.6487615 29.8704159,30.7054237 27.0864139,31.014672 C27.5345554,31.4006569 27.9343528,32.1634182 27.9343528,33.3298137 C27.9343528,35.0003683 27.9190055,36.3486295 27.9190055,36.7584027 C27.9190055,37.092974 28.1446109,37.4820283 28.7784548,37.3600172 C33.7417748,35.7032751 37.32,31.0215783 37.32,25.5003837 C37.32,18.5963965 31.7228362,13 24.818849,13"></path>
                </g>
            </g>
        </g>
    </g>
</svg>