<?xml version="1.0" encoding="UTF-8"?>
<svg width="24px" height="20px" viewBox="0 0 24 20" version="1.1" xmlns="http://www.w3.org/2000/svg" xmlns:xlink="http://www.w3.org/1999/xlink">
    <title>Telegram</title>
    <g id="Symbols" stroke="none" stroke-width="1" fill="none" fill-rule="evenodd">
        <g id="Светлая-тема/Подвал/1440px" transform="translate(-616.000000, -120.000000)" fill="#FFFFFF" fill-rule="nonzero">
            <g id="Telegram" transform="translate(605.000000, 104.000000)">
                <path d="M12.2265335,25.0782447 C14.5794999,23.7821675 17.2060398,22.7004538 19.6601495,21.6132048 C23.882171,19.8323776 28.1209658,18.0824134 32.4025327,16.4532173 C33.2354976,16.1756182 34.7323519,15.9042253 34.8791187,17.1387443 C34.7987744,18.8861926 34.4681715,20.6234091 34.2413957,22.3606256 C33.6659019,26.1809252 33.0005028,29.9881415 32.3518772,33.7958611 C32.1282883,35.0640946 30.539516,35.7207715 29.5228829,34.9091088 C27.0796759,33.2587783 24.6176826,31.6245502 22.205674,29.9359764 C21.4154812,29.1330358 22.1483092,27.9802031 22.8537965,27.4068898 C24.8660961,25.4236081 27.0001702,23.7388922 28.9073007,21.6532931 C29.4217396,20.4108907 27.901738,21.4578835 27.4003824,21.7787578 C24.6455264,23.6771663 21.9580993,25.6914786 19.0536249,27.3599244 C17.5700216,28.1766191 15.8408563,27.4786797 14.3579239,27.0229476 C13.0283,26.4724461 11.0799069,25.9177512 12.2263658,25.0784125 L12.2265335,25.0782447 Z"></path>
            </g>
        </g>
    </g>
</svg>