<?xml version="1.0" encoding="UTF-8"?>
<svg width="23px" height="20px" viewBox="0 0 23 20" version="1.1" xmlns="http://www.w3.org/2000/svg" xmlns:xlink="http://www.w3.org/1999/xlink">
    <title>Twitter</title>
    <g id="Symbols" stroke="none" stroke-width="1" fill="none" fill-rule="evenodd">
        <g id="Светлая-тема/Подвал/1440px" transform="translate(-679.000000, -119.000000)" fill="#FFFFFF">
            <g id="Соц.-Сети" transform="translate(605.000000, 104.000000)">
                <g id="Twitter" transform="translate(60.000000, 0.000000)">
                    <path d="M37,17.5817202 C36.152469,17.9620691 35.2431747,18.2202877 34.2892735,18.3354392 C35.2637625,17.7422344 36.0117858,16.8000857 36.3617783,15.6799755 C35.4490527,16.231307 34.4402506,16.6291031 33.3662539,16.8454484 C32.5049978,15.9137679 31.2800239,15.3310315 29.9212293,15.3310315 C27.316873,15.3310315 25.2031926,17.4805264 25.2031926,20.1290113 C25.2031926,20.5058708 25.2443682,20.872262 25.3267194,21.221206 C21.4047441,21.0223079 17.9288378,19.1100948 15.6024168,16.2068809 C15.1975235,16.9152372 14.9641951,17.738745 14.9641951,18.6180838 C14.9641951,20.2825466 15.7980009,21.7516008 17.0641504,22.610003 C16.292108,22.5855769 15.5646725,22.3692317 14.9264508,22.0098194 C14.9264508,22.030756 14.9264508,22.0482032 14.9264508,22.0691398 C14.9264508,24.3931068 16.5528868,26.3332353 18.7111741,26.7729048 C18.3165747,26.8810774 17.8979561,26.9403979 17.4690437,26.9403979 C17.1636581,26.9403979 16.8685663,26.9089929 16.5803372,26.8531619 C17.1808146,28.758396 18.9239147,30.1471931 20.9861256,30.1855769 C19.3699836,31.4731802 17.3386543,32.240857 15.1254662,32.240857 C14.744592,32.240857 14.3705803,32.2164309 14,32.1745577 C16.08623,33.5354392 18.5670595,34.3310315 21.2331792,34.3310315 C29.9109354,34.3310315 34.6564225,27.020655 34.6564225,20.6803428 C34.6564225,20.4709764 34.6529912,20.2650994 34.6426973,20.0592225 C35.5657168,19.3822712 36.3652096,18.5378267 36.9965687,17.5747413 L37,17.5817202 Z"></path>
                </g>
            </g>
        </g>
    </g>
</svg>