<?xml version="1.0" encoding="UTF-8"?>
<svg width="26px" height="16px" viewBox="0 0 26 16" version="1.1" xmlns="http://www.w3.org/2000/svg" xmlns:xlink="http://www.w3.org/1999/xlink">
    <title>VK</title>
    <g id="Symbols" stroke="none" stroke-width="1" fill="none" fill-rule="evenodd">
        <g id="Светлая-тема/Подвал/1440px" transform="translate(-797.000000, -122.000000)" fill="#FFFFFF">
            <g id="Соц.-Сети" transform="translate(605.000000, 104.000000)">
                <g id="VK" transform="translate(180.000000, 0.000000)">
                    <path d="M36.660037,19.5113667 C36.8358926,18.9251813 36.660037,18.5148515 35.8393773,18.5148515 L33.1038453,18.5148515 C32.4004228,18.5148515 32.0877905,18.8861023 31.9119349,19.2964321 C31.9119349,19.2964321 30.5246293,22.6963076 28.5511384,24.8847333 C27.9063344,25.5295373 27.6327812,25.7249324 27.2810699,25.7249324 C27.1052143,25.7249324 26.8512006,25.5295373 26.8512006,24.9433518 L26.8512006,19.5113667 C26.8512006,18.8079442 26.6558054,18.5148515 26.06962,18.5148515 L21.7709267,18.5148515 C21.3410574,18.5148515 21.0675042,18.8470232 21.0675042,19.140116 C21.0675042,19.8044595 22.04448,19.9607756 22.161717,21.79749 L22.161717,25.82263 C22.161717,26.7019082 22.0054009,26.8582243 21.6536897,26.8582243 C20.7353325,26.8582243 18.4687488,23.4583487 17.1400618,19.5504458 C16.8665086,18.8274837 16.6124949,18.5148515 15.9090723,18.5148515 L13.1735403,18.5148515 C12.3919597,18.5148515 12.2356436,18.8861023 12.2356436,19.2964321 C12.2356436,20.0193941 13.1540008,23.6146648 16.5538763,28.3627669 C18.82046,31.6063263 22.0054009,33.3648827 24.8972491,33.3648827 C26.6362659,33.3648827 26.8512006,32.9740924 26.8512006,32.3097489 L26.8512006,29.84777 C26.8512006,29.0661894 27.0075167,28.9098733 27.5741626,28.9098733 C27.9844924,28.9098733 28.6683754,29.1052685 30.2901552,30.6684296 C32.1464091,32.5246835 32.4590413,33.3648827 33.4946356,33.3648827 L36.2301676,33.3648827 C37.0117482,33.3648827 37.4025385,32.9740924 37.1680643,32.2120513 C36.9140507,31.4500102 36.0347725,30.3362579 34.8624016,29.0075709 C34.2175976,28.2455298 33.2601614,27.4444097 32.9866082,27.0340799 C32.5762784,26.506513 32.6935155,26.2720388 32.9866082,25.82263 C32.9866082,25.8030905 36.3278652,21.1136069 36.660037,19.5113667 L36.660037,19.5113667 Z"></path>
                </g>
            </g>
        </g>
    </g>
</svg>