<?xml version="1.0" encoding="UTF-8"?>
<svg width="150px" height="20px" viewBox="0 0 150 20" version="1.1" xmlns="http://www.w3.org/2000/svg" xmlns:xlink="http://www.w3.org/1999/xlink">
    <title>Built with Nuxt.js</title>
    <g id="Symbols" stroke="none" stroke-width="1" fill="none" fill-rule="evenodd">
        <g id="Светлая-тема/Подвал/1440px" transform="translate(-645.000000, -184.000000)" fill-rule="nonzero">
            <g id="Built-with-Nuxt.js" transform="translate(645.000000, 184.000000)">
                <path d="M107.441937,19.68 C107.22968,19.8933343 106.970994,20 106.665874,20 C106.360754,20 106.10207,19.8933343 105.889813,19.68 C105.677556,19.4666657 105.571429,19.2066686 105.571429,18.9 L105.571429,7.1 C105.571429,6.79333143 105.677556,6.53333429 105.889813,6.32 C106.10207,6.10666571 106.360756,6 106.665874,6 C106.970994,6 107.232996,6.10666571 107.451886,6.32 C107.670776,6.53333429 107.78022,6.79333143 107.78022,7.1 L107.78022,11.9 L112.934066,11.9 L112.934066,7.1 C112.934066,6.79333143 113.040194,6.53333429 113.252451,6.32 C113.464709,6.10666571 113.723393,6 114.028511,6 C114.333631,6 114.595633,6.10666571 114.814523,6.32 C115.033414,6.53333429 115.142857,6.79333143 115.142857,7.1 L115.142857,18.9 C115.142857,19.2066686 115.033414,19.4666657 114.814523,19.68 C114.595633,19.8933343 114.333631,20 114.028511,20 C113.723393,20 113.464707,19.8933343 113.25245,19.68 C113.040193,19.4666657 112.934066,19.2066686 112.934066,18.9 L112.934066,14.1 L107.78022,14.1 L107.78022,18.9 C107.78022,19.2066686 107.66746,19.4666657 107.441937,19.68 L107.441937,19.68 Z M101.96648,6.32 C102.179304,6.53333429 102.285714,6.79333143 102.285714,7.1 C102.285714,7.40666857 102.175979,7.67 101.956504,7.89 C101.73703,8.11 101.48098,8.22 101.188347,8.22 L98.0159614,8.22 L98.0159614,18.9 C98.0159614,19.2066686 97.9095514,19.4666657 97.6967286,19.68 C97.4839043,19.8933343 97.2245286,20 96.9185957,20 C96.6126614,20 96.3532871,19.8933343 96.1404629,19.68 C95.9276386,19.4666657 95.8212286,19.2066686 95.8212286,18.9 L95.8212286,8.22 L92.6687943,8.22 C92.3628614,8.22 92.1034857,8.11 91.8906629,7.89 C91.6778386,7.67 91.5714286,7.40666857 91.5714286,7.1 C91.5714286,6.79333143 91.6778386,6.53333429 91.8906629,6.32 C92.1034857,6.10666571 92.3628614,6 92.6687943,6 L101.188349,6 C101.494281,6 101.753657,6.10666571 101.96648,6.32 Z M86.5714286,7.1 C86.5714286,6.79333143 86.6812514,6.53333429 86.9009,6.32 C87.12055,6.10666571 87.3882429,6 87.70399,6 C88.0197357,6 88.2908614,6.10666571 88.5173757,6.32 C88.7438871,6.53333429 88.8571429,6.79333143 88.8571429,7.1 L88.8571429,18.9 C88.8571429,19.2066686 88.7438886,19.4666657 88.5173743,19.68 C88.29086,19.8933343 88.0197357,20 87.7039886,20 C87.3882443,20 87.12055,19.8933343 86.9009014,19.68 C86.6812514,19.4666657 86.5714286,19.2066686 86.5714286,18.9 L86.5714286,7.1 Z M70.3372071,19.7999686 L70.1770786,19.9199871 L70.1570629,19.9199871 C70.11703,19.9199871 70.0569814,19.93999 69.9769171,19.9799971 L69.9168686,19.9799971 C69.8768357,19.9933329 69.8134514,20 69.7267143,20 C69.6399771,20 69.5765943,19.9933329 69.5365614,19.9799971 L69.4765129,19.9799971 C69.3964471,19.9533257 69.3497443,19.9366571 69.3363986,19.9299886 C69.3230557,19.9233214 69.2997029,19.91332 69.2663429,19.8999843 C69.2329829,19.8866486 69.1829429,19.8533114 69.1162214,19.79997 L69.0962071,19.79997 C69.0428286,19.7599629 68.9894529,19.7099557 68.9360771,19.6499457 C68.8827,19.5899357 68.8426686,19.5465971 68.81598,19.5199257 L68.81598,19.4999229 C68.8026357,19.4865871 68.7859557,19.4565829 68.76594,19.4099086 C68.7459229,19.3632343 68.7292429,19.33323 68.7158986,19.3198943 L63.7919243,7.65809143 C63.6851714,7.37804714 63.6885071,7.09800571 63.8019329,6.81796286 C63.9153586,6.53791714 64.1121814,6.34455571 64.3924086,6.23787286 C64.6592929,6.11785286 64.93618,6.11451857 65.22308,6.22787143 C65.50998,6.34122143 65.7068029,6.53791714 65.8135557,6.81796143 L69.7367229,16.0793943 L72.3188071,9.93844429 C72.5056257,9.48503857 72.8492329,9.25833857 73.3496386,9.25833857 C73.8500457,9.25833857 74.2003243,9.48503857 74.4004871,9.93844429 L76.9825714,16.0793943 L80.8857214,6.81796143 C81.0058186,6.53791857 81.2059786,6.34122143 81.4862071,6.22787143 C81.7664343,6.11451857 82.0466571,6.11451857 82.3268843,6.22787143 C82.6071129,6.34122143 82.8039357,6.54125143 82.9173614,6.82796286 C83.0307871,7.11467714 83.0274514,7.39138286 82.9073529,7.65809143 L78.0033957,19.3198943 C77.9767071,19.4265786 77.9033157,19.53326 77.7832171,19.6399443 C77.7832171,19.65328 77.7765457,19.6732829 77.7632014,19.6999529 C77.7098243,19.7266243 77.6631214,19.7599629 77.6230871,19.7999686 L77.6030729,19.7999686 L77.4229271,19.9199871 L77.40291,19.9199871 C77.3895671,19.9199871 77.3762229,19.9233214 77.3628786,19.9299886 C77.3495343,19.9366571 77.30283,19.9533257 77.2227643,19.9799971 L77.1827329,19.9799971 C77.1427,19.9933329 77.0793157,20 76.9925786,20 C76.9058429,20 76.8424586,19.9933329 76.8024257,19.9799971 L76.7423771,19.9799971 C76.6623129,19.9533257 76.6156086,19.9366571 76.6022643,19.9299886 C76.5889214,19.9233214 76.5655686,19.9166543 76.5322071,19.9099857 C76.4988471,19.9033186 76.4488071,19.8666471 76.3820871,19.7999686 L76.36207,19.7999686 C76.2419729,19.7199557 76.1552371,19.62661 76.10186,19.5199257 C76.0484843,19.4932543 76.0084514,19.4265786 75.9817629,19.3198943 L73.3596471,13.1189371 L70.73753,19.3198943 C70.7241871,19.3599014 70.6974986,19.4199086 70.6574657,19.4999229 L70.5173529,19.6399443 C70.5173529,19.65328 70.5106814,19.6732829 70.4973371,19.6999529 C70.4706486,19.7132886 70.4306171,19.7466271 70.37724,19.7999686 L70.3372071,19.7999686 L70.3372071,19.7999686 Z" id="Shape" fill="#00C48D"></path>
                <path d="M54.8236229,6.32 C55.0364471,6.53333429 55.1428571,6.79333143 55.1428571,7.1 C55.1428571,7.40666857 55.0331214,7.67 54.8136471,7.89 C54.5941729,8.11 54.3381229,8.22 54.04549,8.22 L50.8731043,8.22 L50.8731043,18.9 C50.8731043,19.2066686 50.7666943,19.4666657 50.55387,19.68 C50.3410471,19.8933343 50.0816714,20 49.7757386,20 C49.4698043,20 49.21043,19.8933343 48.9976057,19.68 C48.7847814,19.4666657 48.6783714,19.2066686 48.6783714,18.9 L48.6783714,8.22 L45.5259371,8.22 C45.2200043,8.22 44.9606286,8.11 44.7478057,7.89 C44.5349814,7.67 44.4285714,7.40666857 44.4285714,7.1 C44.4285714,6.79333143 44.5349814,6.53333429 44.7478057,6.32 C44.9606286,6.10666571 45.2200043,6 45.5259371,6 L54.0454914,6 C54.3514243,6 54.6108,6.10666571 54.8236229,6.32 Z M35.3824786,20 C35.0767114,20 34.8174786,19.8933343 34.6047729,19.68 C34.3920657,19.4666657 34.2857143,19.2066686 34.2857143,18.9 L34.2857143,7.1 C34.2857143,6.79333143 34.3920657,6.53333429 34.6047729,6.32 C34.81748,6.10666571 35.0767114,6 35.3824786,6 C35.6882443,6 35.9508,6.10666571 36.1701543,6.32 C36.3895071,6.53333429 36.4991829,6.79333143 36.4991829,7.1 L36.4991829,17.78 L41.9032357,17.78 C42.1957071,17.78 42.4516171,17.89 42.6709714,18.11 C42.8903243,18.33 43,18.5899986 43,18.89 C43,19.1900014 42.8903243,19.45 42.6709714,19.67 C42.4516171,19.89 42.1957086,20 41.9032357,20 L35.3824786,20 L35.3824786,20 Z M28.1428571,7.1 C28.1428571,6.79333143 28.25268,6.53333429 28.4723286,6.32 C28.6919786,6.10666571 28.9596714,6 29.2754186,6 C29.5911643,6 29.86229,6.10666571 30.0888043,6.32 C30.3153143,6.53333429 30.4285714,6.79333143 30.4285714,7.1 L30.4285714,18.9 C30.4285714,19.2066686 30.3153157,19.4666657 30.0888029,19.68 C29.8622886,19.8933343 29.5911643,20 29.2754171,20 C28.9596729,20 28.6919786,19.8933343 28.47233,19.68 C28.25268,19.4666657 28.1428571,19.2066686 28.1428571,18.9 L28.1428571,7.1 Z M23.4285714,14.0771429 C23.4285714,15.6638171 22.8646857,17.0238043 21.7369,18.1571429 C20.6091143,19.2904814 19.2444471,19.8571429 17.6428571,19.8571429 C16.0412671,19.8571429 14.6766,19.2938143 13.5488143,18.1671429 C12.4210286,17.0404714 11.8571429,15.6771514 11.8571429,14.0771429 L11.8571429,6.95714286 C11.8571429,6.65047429 11.9639143,6.39047714 12.1774586,6.17714286 C12.3910043,5.96380857 12.6512586,5.85714286 12.95823,5.85714286 C13.2652014,5.85714286 13.5287929,5.96380857 13.7490114,6.17714286 C13.96923,6.39047714 14.0793371,6.65047429 14.0793371,6.95714286 L14.0793371,14.0771429 C14.0793371,15.0504814 14.4263443,15.88714 15.1203657,16.5871429 C15.8143886,17.2871457 16.65521,17.6371429 17.6428571,17.6371429 C18.6305043,17.6371429 19.4713257,17.29048 20.1653486,16.5971429 C20.85937,15.9038057 21.2063771,15.0638143 21.2063771,14.0771429 L21.2063771,6.95714286 C21.2063771,6.65047429 21.3164843,6.39047714 21.5367029,6.17714286 C21.7569214,5.96380857 22.0205129,5.85714286 22.3274843,5.85714286 C22.6344557,5.85714286 22.89471,5.96380857 23.1082557,6.17714286 C23.3218,6.39047714 23.4285714,6.65047429 23.4285714,6.95714286 L23.4285714,14.0771429 Z M1.18,20 L1.16,19.98 C1.14666714,19.98 1.12666714,19.9866671 1.1,20 C0.793331429,20 0.533334286,19.8933343 0.32,19.68 C0.106665714,19.4666657 0,19.2066686 0,18.9 L0,7.1 C0,6.79333143 0.106665714,6.53333429 0.32,6.32 C0.533334286,6.10666571 0.793331429,6 1.1,6 L3.94,6 C4.99333857,6 5.88999571,6.36999571 6.63,7.11 C7.37000429,7.85000429 7.74,8.69332857 7.74,9.64 C7.74,10.5866714 7.48666857,11.3999971 6.98,12.08 C7.59333571,12.4666686 8.08333143,12.9799971 8.45,13.62 C8.81666857,14.2600029 9,14.9533286 9,15.7 C9,16.8866714 8.58333714,17.8999957 7.75,18.74 C6.91666286,19.5800043 5.90667143,20 4.72,20 L1.18,20 Z M2.22,8.22 L2.22,11.42 L3.94,11.42 C4.38000286,11.42 4.75333143,11.2600014 5.06,10.94 C5.36666857,10.6199986 5.52,10.2400029 5.52,9.8 C5.52,9.35999714 5.36666857,8.98666857 5.06,8.68 C4.75333143,8.37333143 4.38000286,8.22 3.94,8.22 L2.22,8.22 L2.22,8.22 Z M2.22,13.64 L2.22,17.78 L4.72,17.78 C5.29333571,17.7666671 5.77999857,17.5600014 6.18,17.16 C6.58000143,16.7599986 6.78,16.2733357 6.78,15.7 C6.78,15.1266643 6.58000143,14.6433357 6.18,14.25 C5.77999857,13.8566643 5.29333571,13.6533329 4.72,13.64 L2.22,13.64 Z" id="Shape" fill="#FFFFFF"></path>
                <g id="Group" transform="translate(123.571429, 0.000000)">
                    <path d="M15.0590657,5.50832714 L14.1546214,7.09918 L11.0614986,1.65713714 L1.56613714,18.36109 L7.99513286,18.36109 C7.99513286,19.2396943 8.69631571,19.9519429 9.56127,19.9519429 L1.56613714,19.9519429 C1.00666429,19.9519429 0.489737143,19.6485757 0.210048571,19.1563857 C-0.0696414286,18.6641929 -0.0696128571,18.0578286 0.210122857,17.5656643 L9.70548571,0.861711429 C9.98524286,0.369475714 10.50228,0.06624 11.0618257,0.06624 C11.62137,0.06624 12.1384086,0.369475714 12.4181657,0.861711429 L15.0590657,5.50832714 Z" id="Path" fill="#00C58E"></path>
                    <path d="M21.9135286,17.5656643 L15.96351,7.09917857 L15.0590657,5.50832714 L14.1546214,7.09918 L8.20525571,17.5656643 C7.92551857,18.0578286 7.92549,18.6641929 8.20518,19.1563843 C8.48487,19.6485757 9.00179714,19.9519429 9.56127,19.9519429 L20.5555557,19.9519429 C21.1151457,19.9519429 21.6322843,19.6489057 21.9121343,19.1566714 C22.1919843,18.6644371 22.1920171,18.0579314 21.9122229,17.5656643 L21.9135271,17.5656643 L21.9135286,17.5656643 Z M9.56127,18.36109 L15.0590657,8.69003286 L20.5555557,18.36109 L9.56127,18.36109 Z" id="Shape" fill="#FFFFFF"></path>
                    <path d="M26.1675486,19.1565171 C25.8878386,19.6486343 25.3709543,19.9519429 24.8115343,19.9519429 L20.5555571,19.9519429 C21.4205114,19.9519429 22.1216943,19.2396943 22.1216943,18.36109 L24.8082729,18.36109 L17.1850986,4.94954 L15.9635114,7.09918 L15.0590671,5.50832714 L15.8290843,4.15411286 C16.1088414,3.66187714 16.62588,3.35864143 17.1854243,3.35864143 C17.74497,3.35864143 18.2620086,3.66187714 18.5417657,4.15411286 L26.16755,17.5656643 C26.4473129,18.0578757 26.4473129,18.6643057 26.16755,19.1565171 L26.1675486,19.1565171 Z" id="Path" fill="#108775"></path>
                </g>
            </g>
        </g>
    </g>
</svg>